# xmcd
#
# Track frame offsets:
# 150
# 13215
# 25145
# 38740
# 51109
# 64202
# 79691
# 92617
# 103759
# 114598
# 129781
# 145187
# 162415
# 179085
#
# Disc length: 2609 seconds
#
#
# Revision: 0
# Processed by: cddbd v1.5.1PL0 Copyright (c) Steve Scherf et al.
# Submitted via: FreeRIP 2.51 
#
DISCID=b90a2f0e
DTITLE=Ray Charles - Various
DYEAR=1900
DGENRE=Blues
TTITLE0=Let The Good Times Roll
TTITLE1=Mess Around
TTITLE2=Worried Life Blues
TTITLE3=It Had To Be You
TTITLE4=Alexander's Ragtime Band
TTITLE5=Two Years Of Torture
TTITLE6=When Your Lover Has Gone
TTITLE7=Deed I Do
TTITLE8=Just For A Thrill
TTITLE9=You Won't Let Me Go
TTITLE10=Tell Me You'll Wait For Me
TTITLE11=Don't Let The Sun Catch You Cryin'
TTITLE12=Am I Blue
TTITLE13=Come Rain Or Shine
EXTD=
EXTT0=
EXTT1=
EXTT2=
EXTT3=
EXTT4=
EXTT5=
EXTT6=
EXTT7=
EXTT8=
EXTT9=
EXTT10=
EXTT11=
EXTT12=
EXTT13=
PLAYORDER=
